<?xml version="1.0" encoding="UTF-8"?>
<svg width="100pt" height="100pt" version="1.1" viewBox="0 0 100 100" xmlns="http://www.w3.org/2000/svg">
 <g>
  <path d="m48.871 42.352c0-11.277-9.1406-20.418-20.418-20.418s-19.461 8.8242-20.418 20.062c-1.457 17.145 11.566 31.5 27.379 36.066-5.3906-3.2578-9.1484-8.9258-9.7773-15.52 0.92188 0.13281 1.8555 0.22266 2.8125 0.22266 11.281 0.003906 20.422-9.1367 20.422-20.414z"/>
  <path d="m92 42.352c0-11.277-9.1406-20.418-20.418-20.418-11.277 0-19.461 8.8242-20.418 20.062-1.457 17.145 11.566 31.5 27.383 36.066-5.3906-3.2578-9.1484-8.9258-9.7773-15.52 0.92188 0.13281 1.8594 0.22266 2.8125 0.22266 11.277 0.003906 20.418-9.1367 20.418-20.414z"/>
 </g>
</svg>
